<svg aria-hidden="true" width="0" height="0" style="position:absolute"><symbol viewBox="0 0 16 17" id="381e43c18a5b8755292df44005653e49" xmlns="http://www.w3.org/2000/svg"><path fill-rule="evenodd" clip-rule="evenodd" d="M11.81 11.28l3.95 4.2c.33.36.32.93-.03 1.27a.86.86 0 01-1.23-.02l-3.98-4.24a6.5 6.5 0 01-3.83 1.24A6.79 6.79 0 010 6.86C0 3.08 3 0 6.7 0c3.68 0 6.68 3.08 6.68 6.86 0 1.62-.55 3.18-1.57 4.42zm-.17-4.42c0-2.8-2.22-5.07-4.95-5.07a5.02 5.02 0 00-4.94 5.07c0 2.8 2.21 5.08 4.94 5.08a5.02 5.02 0 004.95-5.08z" fill="#929EAF"/></symbol></svg>