<svg width="14" height="17" xmlns="http://www.w3.org/2000/svg">
  <path d="M10.8 1.8A5.82 5.82 0 006.7.2a6.4 6.4 0 00-4.75 1.87A5.55 5.55 0 00.35 5.9c0 1.73.7 3.05 1.9 3.55.08.03.16.05.24.05.25 0 .45-.17.52-.44l.17-.7c.09-.32.02-.48-.17-.7-.35-.42-.5-.91-.5-1.55 0-1.9 1.38-3.9 3.96-3.9 2.04 0 3.31 1.17 3.31 3.07 0 1.2-.25 2.3-.71 3.12-.32.57-.89 1.25-1.75 1.25-.38 0-.72-.16-.93-.43a1.1 1.1 0 01-.18-.94c.09-.39.21-.8.33-1.2.22-.71.43-1.4.43-1.94 0-.93-.56-1.55-1.4-1.55-1.07 0-1.9 1.1-1.9 2.5 0 .69.18 1.2.26 1.4l-1.08 4.65c-.09.38-.61 3.36.26 3.6.98.26 1.85-2.64 1.94-2.97l.48-1.9c.47.47 1.23.78 1.97.78 1.4 0 2.66-.64 3.54-1.8a7.29 7.29 0 001.33-4.4c0-1.35-.57-2.67-1.56-3.64z" />
</svg>
